# xmcd
#
# Track frame offsets:
#	150
#	20265
#	36882
#	54320
#	72575
#	91232
#	105835
#	125962
#	146100
#	165025
#
# Disc length: 2414 seconds
#
# Revision: 7
# Processed by: cddbd v1.5.2PL0 Copyright (c) Steve Scherf et al.
# Submitted via: EasyCDDAExtractor 15.3.0.1
#
DISCID=7e096c0a
DTITLE=Sin Bandera
DYEAR=2002
DGENRE=Latin
TTITLE0=Para Alcanzarte
TTITLE1=Kilometros
TTITLE2=A Encontrarte (Dueto Con Aureo Baqueiro)
TTITLE3=A Primera Vista
TTITLE4=Entra En Mi Vida
TTITLE5=Te Vi Venir
TTITLE6=Sirena
TTITLE7=No Neguemos El Amor
TTITLE8=Si Me Besas
TTITLE9=Ves
EXTD=Producción con la que se dan a conocer.\n10 en primer lugar en México.
EXTT0=
EXTT1=
EXTT2=
EXTT3=
EXTT4=
EXTT5=
EXTT6=
EXTT7=
EXTT8=
EXTT9=
PLAYORDER=
